{
  "accessors": [
    {
      "bufferView": 2,
      "componentType": 5126,
      "count": 26805,
      "max": [
        4.986837863922119,
        9.758737564086914,
        0.046897001564502716
      ],
      "min": [
        -4.622171878814697,
        -11.359842300415039,
        -6.0443949699401855
      ],
      "type": "VEC3"
    },
    {
      "bufferView": 2,
      "byteOffset": 321660,
      "componentType": 5126,
      "count": 26805,
      "max": [
        0.9999779462814331,
        0.9998934268951416,
        0.9999643564224243
      ],
      "min": [
        -0.9999258518218994,
        -0.9998642802238464,
        -0.9999954700469971
      ],
      "type": "VEC3"
    },
    {
      "bufferView": 1,
      "componentType": 5126,
      "count": 26805,
      "max": [
        0.9999160170555115,
        0.9886810183525085
      ],
      "min": [
        8.099999831756577e-05,
        3.199999991920777e-05
      ],
      "type": "VEC2"
    },
    {
      "bufferView": 0,
      "componentType": 5125,
      "count": 149988,
      "type": "SCALAR"
    },
    {
      "bufferView": 2,
      "byteOffset": 643320,
      "componentType": 5126,
      "count": 55444,
      "max": [
        5.33054780960083,
        9.102801322937012,
        7.789175033569336
      ],
      "min": [
        -4.154300212860107,
        -11.967190742492676,
        -1.5435930490493774
      ],
      "type": "VEC3"
    },
    {
      "bufferView": 2,
      "byteOffset": 1308648,
      "componentType": 5126,
      "count": 55444,
      "max": [
        0.9999996423721313,
        0.9999957084655762,
        0.9999507665634155
      ],
      "min": [
        -0.9999889135360718,
        -0.9998824596405029,
        -0.9999561309814453
      ],
      "type": "VEC3"
    },
    {
      "bufferView": 1,
      "byteOffset": 214440,
      "componentType": 5126,
      "count": 55444,
      "max": [
        0.9993950128555298,
        0.9921640157699585
      ],
      "min": [
        0.0,
        0.0
      ],
      "type": "VEC2"
    },
    {
      "bufferView": 0,
      "byteOffset": 599952,
      "componentType": 5125,
      "count": 301254,
      "type": "SCALAR"
    }
  ],
  "asset": {
    "extras": {
      "author": "rankinstudio (https://sketchfab.com/rankinstudio)",
      "license": "CC-BY-4.0 (http://creativecommons.org/licenses/by/4.0/)",
      "source": "https://sketchfab.com/3d-models/juvenile-teratophoneus-curriei-2d7c4e880c2e45289ebbade3ec479979",
      "title": "Juvenile Teratophoneus curriei"
    },
    "generator": "Sketchfab-12.65.0",
    "version": "2.0"
  },
  "bufferViews": [
    {
      "buffer": 0,
      "byteLength": 1804968,
      "name": "floatBufferViews",
      "target": 34963
    },
    {
      "buffer": 0,
      "byteLength": 657992,
      "byteOffset": 1804968,
      "byteStride": 8,
      "name": "floatBufferViews",
      "target": 34962
    },
    {
      "buffer": 0,
      "byteLength": 1973976,
      "byteOffset": 2462960,
      "byteStride": 12,
      "name": "floatBufferViews",
      "target": 34962
    }
  ],
  "buffers": [
    {
      "byteLength": 4436936,
      "uri": "scene.bin"
    }
  ],
  "extensionsUsed": [
    "KHR_materials_unlit"
  ],
  "images": [
    {
      "uri": "textures/material_baseColor.jpeg"
    },
    {
      "uri": "textures/Skull_baseColor.jpeg"
    }
  ],
  "materials": [
    {
      "doubleSided": true,
      "extensions": {
        "KHR_materials_unlit": {}
      },
      "name": "material",
      "pbrMetallicRoughness": {
        "baseColorTexture": {
          "index": 0
        },
        "metallicFactor": 0.0
      }
    },
    {
      "doubleSided": true,
      "extensions": {
        "KHR_materials_unlit": {}
      },
      "name": "Skull",
      "pbrMetallicRoughness": {
        "baseColorTexture": {
          "index": 1
        },
        "metallicFactor": 0.0
      }
    }
  ],
  "meshes": [
    {
      "name": "Object_0",
      "primitives": [
        {
          "attributes": {
            "NORMAL": 1,
            "POSITION": 0,
            "TEXCOORD_0": 2
          },
          "indices": 3,
          "material": 0,
          "mode": 4
        }
      ]
    },
    {
      "name": "Object_1",
      "primitives": [
        {
          "attributes": {
            "NORMAL": 5,
            "POSITION": 4,
            "TEXCOORD_0": 6
          },
          "indices": 7,
          "material": 1,
          "mode": 4
        }
      ]
    }
  ],
  "nodes": [
    {
      "children": [
        1
      ],
      "matrix": [
        0.004322464112192392,
        2.2204252704733257e-16,
        -0.9999906420707703,
        0.0,
        -0.9999906420707703,
        9.59779836094386e-19,
        -0.004322464112192392,
        0.0,
        0.0,
        1.0,
        2.220446049250313e-16,
        0.0,
        -0.7515418529510498,
        -3.22766033836869e-16,
        1.4536089897155762,
        1.0
      ],
      "name": "Sketchfab_model"
    },
    {
      "children": [
        2,
        3
      ],
      "name": "TERAT.obj.cleaner.materialmerger.gles"
    },
    {
      "mesh": 0,
      "name": "Object_2"
    },
    {
      "mesh": 1,
      "name": "Object_3"
    }
  ],
  "samplers": [
    {
      "magFilter": 9729,
      "minFilter": 9987,
      "wrapS": 10497,
      "wrapT": 10497
    }
  ],
  "scene": 0,
  "scenes": [
    {
      "name": "Sketchfab_Scene",
      "nodes": [
        0
      ]
    }
  ],
  "textures": [
    {
      "sampler": 0,
      "source": 0
    },
    {
      "sampler": 0,
      "source": 1
    }
  ]
}
